<?xml version="1.0" encoding="utf-8"?>
<!-- Generator: Adobe Illustrator 19.2.1, SVG Export Plug-In . SVG Version: 6.00 Build 0)  -->
<svg version="1.1" id="layer" xmlns="http://www.w3.org/2000/svg" xmlns:xlink="http://www.w3.org/1999/xlink" x="0px" y="0px"
	 viewBox="0 0 652 652" style="enable-background:new 0 0 652 652;" xml:space="preserve">
<style type="text/css">
	.st0{fill:#FFFFFF;}
</style>
<g id="svg-colour-1">
	<rect x="20.6" y="269.2" width="600" height="104.4"/>
</g>
<g id="svg-colour-2">
	<g>
		<g>
			<path class="st0" d="M244.5,284.2H280c13.1-0.2,27.5,3.2,27.5,19.1c0,6.8-4.1,12.4-10,15.2c8,2.4,13.1,9.4,13.1,17.9
				c0,18.1-13.2,23.5-29.6,23.5h-36.5V284.2z M264.3,314h15.2c3.3,0,8-1.9,8-7.3c0-5.6-4-7.3-8-7.3h-15.2V314z M264.3,344.2h15.8
				c6.3,0,10.6-2.2,10.6-8.4c0-6.7-4.7-8.9-10.6-8.9h-15.8V344.2z"/>
			<path class="st0" d="M315.9,284.2h19.7V343H371V360h-55.2L315.9,284.2L315.9,284.2z"/>
			<path class="st0" d="M410,282.6c23.9,0,37.4,17.6,37.4,39.6s-13.5,39.6-37.4,39.6c-23.9,0-37.4-17.6-37.4-39.6
				S386,282.6,410,282.6z M410,344.5c12.7,0,17.7-11.3,17.7-22.5c0-11.3-4.8-22.5-17.7-22.5c-12.9,0-17.7,11.3-17.7,22.5
				C392.4,333.3,397.2,344.5,410,344.5z"/>
			<path class="st0" d="M503.1,311.3c-1.1-7.7-7.1-11.6-15.2-11.6c-12.7,0-17.7,11.3-17.7,22.5c0,11.3,4.8,22.5,17.7,22.5
				c9.3,0,14.6-5.3,15.2-14h19.8c-1.1,19.5-15.5,31.1-34.6,31.1c-22.9,0-37.9-17.6-37.9-39.6c0-22,14.8-39.6,37.9-39.6
				c16.3,0,34,10.4,34.6,28.7L503.1,311.3L503.1,311.3z"/>
			<path class="st0" d="M528.1,284.2h19.8v29.1l25-29.1h24.5L569.3,314l31.5,45.9h-24.5l-20.4-31.8l-8,8.4v23.4h-19.8V284.2
				L528.1,284.2z"/>
		</g>
		<g>
			<path class="st0" d="M26.9,276v91.3H225V276H26.9z M93.7,294.1H69.8v63.6h-9.5v-63.6h-24v-8h57.3L93.7,294.1L93.7,294.1z
				 M156.8,357.6h-9.5v-32.8h-37.6v32.8h-9.5V286h9.5v30.8h37.7V286h9.5L156.8,357.6L156.8,357.6z M213.3,357.6h-49.7V286H213v8h-40
				v22.8h37.2v8H173v24.7h40.2L213.3,357.6L213.3,357.6z"/>
		</g>
	</g>
</g>
</svg>
